<svg width="24" height="24" viewBox="0 0 24 24" fill="none" xmlns="http://www.w3.org/2000/svg">
<path fill-rule="evenodd" clip-rule="evenodd" d="M21.1608 7.06441L17.5155 2.83706L16.7946 2H8.18238C7.02625 2 6.09106 2.93652 6.09106 4.09332V6.75335H7.38737L7.38671 4.60263C7.38804 3.95181 7.91137 3.42514 8.56019 3.42514L15.9255 3.41846V6.90822C15.9269 8.20786 16.9769 9.25986 18.2778 9.25986H20.8271L20.7016 19.3266C20.6996 19.9741 20.1742 20.4968 19.5274 20.5021L8.46674 20.4968C7.87466 20.4968 7.39805 19.916 7.39538 19.2005V18.348H6.09707V19.619C6.09707 20.8953 6.95282 21.9339 8.00349 21.9339L19.9059 21.9312C21.062 21.9312 21.9999 20.9901 21.9999 19.8359V8.03898L21.1608 7.06441Z" fill="#434440"/>
<path d="M15.4991 18.9968H2V6.10449H15.4991V18.9968ZM3.29698 17.6992H14.1995V7.40214H3.29698" fill="#08743B"/>
<path d="M12.4999 15.9529H10.227L8.67572 13.7608L7.04699 15.9529H4.76343L7.59635 12.391L5.30879 9.27441H7.61504L8.68573 10.9686L9.82718 9.27441H12.1741L9.77578 12.391L12.4999 15.9529Z" fill="#08743B"/>
</svg>