<svg width="26" height="21" viewBox="0 0 26 21" fill="none" xmlns="http://www.w3.org/2000/svg">
<g clip-path="url(#clip0_7151_9130)">
<path fill-rule="evenodd" clip-rule="evenodd" d="M7.39382 10.1432C9.96612 10.1432 12.0514 8.05797 12.0514 5.48568C12.0514 2.91338 9.96612 0.828125 7.39382 0.828125C4.82153 0.828125 2.73627 2.91338 2.73627 5.48568C2.73627 8.05797 4.82153 10.1432 7.39382 10.1432ZM7.39382 8.31346C8.95557 8.31346 10.2216 7.04741 10.2216 5.48566C10.2216 3.92391 8.95557 2.65786 7.39382 2.65786C5.83207 2.65786 4.56602 3.92391 4.56602 5.48566C4.56602 7.04741 5.83207 8.31346 7.39382 8.31346Z" fill="#295097"/>
<path d="M0.5 13.9926C0.657278 13.1771 1.65937 11.9679 4.40949 11.293L7.28547 14.8106L10.1614 11.293C12.9116 11.9679 13.9137 13.1771 14.0709 13.9926V18.2949C13.8013 20.1171 12.5206 20.7414 11.914 20.8257H2.65696C2.05032 20.7414 0.76962 20.1171 0.5 18.2949V13.9926Z" fill="#295097"/>
<path fill-rule="evenodd" clip-rule="evenodd" d="M16.8747 12.2305H25.2859V20.6417H16.8747V12.2305ZM18.37 13.7258H23.7906V19.1464H18.37V13.7258Z" fill="#295097"/>
<path d="M18.8123 5.37918L20.331 6.92696C20.4222 7.01997 20.5701 7.01997 20.6614 6.92698L23.3483 4.18857C23.4395 4.09558 23.4395 3.94481 23.3483 3.85182L23.0179 3.51506C22.9266 3.42206 22.7787 3.42206 22.6875 3.51506L20.4962 5.74833L19.4731 4.70566C19.3819 4.61266 19.2339 4.61266 19.1427 4.70566L18.8123 5.04243C18.721 5.13542 18.721 5.28619 18.8123 5.37918Z" fill="#295097"/>
<path fill-rule="evenodd" clip-rule="evenodd" d="M16.8747 1.01562V9.42684H25.2859V1.01562H16.8747ZM23.7906 2.51096H18.37V7.93152H23.7906V2.51096Z" fill="#295097"/>
</g>
<defs>
<clipPath id="clip0_7151_9130">
<rect width="26" height="21" fill="white"/>
</clipPath>
</defs>
</svg>
