<?xml version="1.0" encoding="UTF-8" standalone="no"?><!-- Generator: Gravit.io --><svg xmlns="http://www.w3.org/2000/svg" xmlns:xlink="http://www.w3.org/1999/xlink" style="isolation:isolate" viewBox="0 0 512 512" width="512pt" height="512pt"><defs><clipPath id="_clipPath_BWqbJOv0SYyENNS0mj7SYG2xHYA0COju"><rect width="512" height="512"/></clipPath></defs><g clip-path="url(#_clipPath_BWqbJOv0SYyENNS0mj7SYG2xHYA0COju)"><path d=" M 93.419 170.19 L 252.361 170.19 C 262.034 170.19 262.034 155.19 252.361 155.19 L 93.419 155.19 C 83.747 155.19 83.747 170.19 93.419 170.19 Z " fill="rgb(33,150,243)"/><path d=" M 93.419 225.365 L 255.023 225.365 C 264.696 225.365 264.696 210.365 255.023 210.365 L 93.419 210.365 C 83.747 210.365 83.747 225.365 93.419 225.365 Z " fill="rgb(33,150,243)"/><path d=" M 93.419 280.539 L 227.979 280.539 C 237.652 280.539 237.652 265.539 227.979 265.539 L 93.419 265.539 C 83.747 265.539 83.747 280.539 93.419 280.539 Z " fill="rgb(33,150,243)"/><path d=" M 398.895 285.786 C 380.775 285.786 363.641 290.076 348.443 297.683 L 348.443 271 C 348.443 261.327 333.443 261.327 333.443 271 L 333.443 306.696 C 326.253 311.815 319.688 317.758 313.879 324.378 L 313.879 306 C 313.879 296.327 298.879 296.327 298.879 306 L 298.879 345 C 298.879 345.335 298.909 345.663 298.951 345.987 C 290.555 361.784 285.788 379.791 285.788 398.893 C 285.788 411.797 287.966 424.201 291.964 435.763 L 50.256 435.763 C 49.875 435.763 49.564 435.453 49.564 435.073 L 49.564 89.009 C 49.564 88.628 49.875 88.319 50.256 88.319 L 97.592 88.319 L 97.592 96.528 C 97.592 100.671 100.95 104.028 105.092 104.028 L 243.35 104.028 C 247.492 104.028 250.85 100.671 250.85 96.528 L 250.85 88.319 L 298.186 88.319 C 298.567 88.319 298.878 88.629 298.878 89.009 L 298.878 220 C 298.878 229.673 313.878 229.673 313.878 220 L 313.878 89.009 C 313.878 80.358 306.838 73.319 298.186 73.319 L 250.85 73.319 L 250.85 56.726 C 250.85 55.67 250.629 54.666 250.235 53.754 L 298.186 53.754 C 317.626 53.754 333.442 69.569 333.442 89.009 L 333.442 190 C 333.442 199.673 348.442 199.673 348.442 190 L 348.442 89.009 C 348.442 61.298 325.897 38.754 298.186 38.754 L 202.976 38.754 L 202.976 28.755 C 202.977 12.899 190.077 0 174.222 0 C 158.367 0 145.467 12.899 145.467 28.755 L 145.467 38.754 L 50.257 38.754 C 22.545 38.754 0 61.298 0 89.009 L 0 435.073 C 0 462.784 22.545 485.328 50.256 485.328 L 298.187 485.328 C 305.888 485.328 313.464 483.552 320.328 480.176 C 340.69 499.865 368.4 512 398.895 512 C 422.542 512 445.193 504.776 464.399 491.111 C 467.774 488.71 468.563 484.026 466.162 480.651 C 463.761 477.277 459.079 476.488 455.703 478.888 C 439.052 490.737 419.408 497 398.895 497 C 344.799 497 300.789 452.989 300.789 398.894 C 300.789 344.797 344.799 300.787 398.895 300.787 C 452.99 300.787 497 344.798 497 398.894 C 497 419.797 490.518 439.747 478.254 456.585 C 475.816 459.933 476.553 464.624 479.901 467.063 C 483.249 469.502 487.942 468.764 490.379 465.416 C 504.523 445.994 512 422.991 512 398.894 C 512 336.526 461.261 285.786 398.895 285.786 Z  M 160.467 28.755 C 160.467 21.269 166.738 15 174.222 15 C 181.707 15 187.977 21.268 187.977 28.755 L 187.977 56.726 C 187.977 60.869 191.335 64.226 195.477 64.226 L 235.851 64.226 L 235.851 89.028 L 112.593 89.028 L 112.593 64.226 L 152.967 64.226 C 157.109 64.226 160.467 60.869 160.467 56.726 L 160.467 28.755 L 160.467 28.755 Z  M 50.256 470.328 C 30.816 470.328 15 454.513 15 435.073 L 15 89.009 C 15 69.57 30.816 53.754 50.256 53.754 L 98.207 53.754 C 97.813 54.665 97.592 55.67 97.592 56.726 L 97.592 73.319 L 50.256 73.319 C 41.604 73.319 34.564 80.358 34.564 89.009 L 34.564 435.073 C 34.564 443.724 41.604 450.763 50.256 450.763 L 298.187 450.763 C 298.258 450.763 298.327 450.754 298.398 450.752 C 301.63 456.99 305.425 462.891 309.717 468.386 C 306.028 469.664 302.131 470.327 298.187 470.327 L 50.256 470.327 L 50.256 470.328 Z " fill="rgb(33,150,243)"/><path d=" M 397.971 310.124 C 393.829 310.124 390.471 313.481 390.471 317.624 L 390.471 398.894 C 390.471 401.657 391.99 404.196 394.425 405.502 L 449.497 435.055 C 458.069 439.654 465.081 426.393 456.59 421.838 L 405.472 394.406 L 405.472 317.624 C 405.471 313.481 402.113 310.124 397.971 310.124 Z " fill="rgb(181,181,181)"/><path d=" M 347.928 219.49 C 345.041 216.603 340.211 216.601 337.322 219.49 L 191.419 365.394 L 162.722 336.697 C 159.793 333.769 155.044 333.769 152.116 336.697 L 88.116 400.697 C 81.3 407.514 91.857 418.167 98.722 411.304 L 157.419 352.607 L 186.116 381.304 C 187.522 382.71 189.43 383.5 191.419 383.5 C 193.408 383.5 195.316 382.71 196.722 381.304 L 342.625 235.4 L 370.91 263.686 C 373.798 266.574 378.627 266.575 381.516 263.686 L 477.124 168.079 L 477.124 197.75 C 477.124 207.423 492.124 207.423 492.124 197.75 L 492.124 154.75 C 492.124 150.607 488.766 147.25 484.624 147.25 L 443.624 147.25 C 433.951 147.25 433.951 162.25 443.624 162.25 L 461.739 162.25 L 376.212 247.776 L 347.928 219.49 L 347.928 219.49 Z " fill="rgb(181,181,181)"/></g></svg>